<svg width="100" height="100" viewBox="0 0 100 100" fill="none" xmlns="http://www.w3.org/2000/svg">
<g clip-path="url(#clip0_266_3439)">
<path d="M100 50C100 77.6143 77.6143 100 50 100C22.3858 100 0 77.6143 0 50C0 22.3858 22.3858 0 50 0C77.6143 0 100 22.3858 100 50ZM8.54064 50C8.54064 72.8975 27.1026 91.4594 50 91.4594C72.8975 91.4594 91.4594 72.8975 91.4594 50C91.4594 27.1026 72.8975 8.54064 50 8.54064C27.1026 8.54064 8.54064 27.1026 8.54064 50Z" fill="#707579"/>
<path d="M33.8902 47.8993C37.1389 47.8993 39.7725 44.8268 39.7725 41.0366C39.7725 37.2464 37.1389 34.1738 33.8902 34.1738C30.6414 34.1738 28.0078 37.2464 28.0078 41.0366C28.0078 44.8268 30.6414 47.8993 33.8902 47.8993Z" fill="#707579"/>
<path d="M66.3902 47.8993C69.6389 47.8993 72.2725 44.8268 72.2725 41.0366C72.2725 37.2464 69.6389 34.1738 66.3902 34.1738C63.1414 34.1738 60.5078 37.2464 60.5078 41.0366C60.5078 44.8268 63.1414 47.8993 66.3902 47.8993Z" fill="#707579"/>
<path d="M31.9297 62.4648C31.9297 62.4648 37.1462 73.3892 50.7602 73.3892C64.3742 73.3892 68.0641 62.5948 68.0641 62.5948" stroke="#707579" stroke-width="7" stroke-linecap="round"/>
</g>
<defs>
<clipPath id="clip0_266_3439">
<rect width="100" height="100" fill="white"/>
</clipPath>
</defs>
</svg>
