<svg width="47" height="45" viewBox="0 0 47 45" fill="none" xmlns="http://www.w3.org/2000/svg">
<path opacity="0.997" fill-rule="evenodd" clip-rule="evenodd" d="M22.7685 0C23.1038 0 23.439 0 23.7743 0C24.1624 0.163598 24.5586 0.331965 24.963 0.505102C25.3168 0.829637 25.6369 1.18168 25.9232 1.56122C27.2492 5.17368 28.6513 8.75531 30.1294 12.3061C30.3614 13.0336 30.7423 13.6611 31.2724 14.1888C31.8597 14.4281 32.4693 14.5811 33.1012 14.648C37.0629 14.7821 41.0252 15.0271 44.9883 15.3827C46.1409 15.7584 46.8115 16.5391 47 17.7245C47 17.7857 47 17.8469 47 17.9082C46.9096 18.5797 46.62 19.1613 46.1313 19.6531C44.3882 21.3127 42.5137 22.7975 40.5078 24.1071C38.611 25.114 36.5993 25.4202 34.4728 25.0255C30.4803 24.2262 26.4722 23.5067 22.4484 22.8673C21.7494 22.8132 21.2769 23.1193 21.0311 23.7857C21.1536 24.1391 21.3669 24.4299 21.6712 24.6582C23.8844 25.8176 26.14 26.889 28.4377 27.8724C30.6595 28.8342 32.7321 30.028 34.6556 31.4541C35.7679 32.4783 36.5452 33.7181 36.9874 35.1735C37.5648 37.3096 38.1134 39.4524 38.6333 41.602C38.6943 42.2755 38.6943 42.949 38.6333 43.6224C38.4936 43.9793 38.2955 44.3008 38.0389 44.5867C37.6794 44.773 37.3136 44.9107 36.9416 45C36.6673 45 36.393 45 36.1187 45C35.4692 44.8583 34.8596 44.5981 34.2899 44.2194C32.9779 43.377 31.6978 42.4892 30.4494 41.5561C29.0932 40.676 27.7216 39.8188 26.3346 38.9847C25.6447 38.6229 24.9436 38.2862 24.2315 37.9745C23.8497 37.9353 23.4687 37.8894 23.0885 37.8367C22.618 37.9738 22.1456 38.1115 21.6712 38.25C18.6473 40.1044 15.6602 42.0024 12.7101 43.9439C12.2834 44.1581 11.8567 44.3725 11.43 44.5867C10.537 44.8369 9.68355 44.7451 8.86965 44.3112C8.30243 43.7819 8.02811 43.1237 8.04669 42.3367C8.09241 41.8776 8.13813 41.4184 8.18385 40.9592C9.06777 37.4694 9.95166 33.9796 10.8356 30.4898C11.2365 28.9563 10.8555 27.6859 9.69261 26.6786C7.47147 24.9071 5.27692 23.1011 3.10895 21.2602C2.17931 20.3265 1.24968 19.3929 0.320039 18.4592C0.209158 18.2365 0.102479 18.0221 0 17.8163C0 17.449 0 17.0816 0 16.7143C0.425494 15.7798 1.15701 15.2747 2.19455 15.199C6.62523 15.0398 11.0448 14.7337 15.4533 14.2806C15.8343 14.0204 16.1544 13.699 16.4134 13.3163C17.6847 10.5268 18.8124 7.67983 19.7967 4.77551C20.2308 3.62121 20.7184 2.48855 21.2597 1.37755C21.4553 1.0617 21.6839 0.770878 21.9455 0.505102C22.2562 0.380474 22.5306 0.212107 22.7685 0Z" fill="#0D75F0"/>
</svg>
