<svg width="85" height="97" viewBox="0 0 85 97" fill="none" xmlns="http://www.w3.org/2000/svg">
<path fill-rule="evenodd" clip-rule="evenodd" d="M51.3443 0.544135C66.1433 -1.81887 76.9763 3.51443 83.8443 16.5441C85.1253 23.5871 84.1253 30.2538 80.8443 36.5441C68.0403 50.3486 54.8737 63.8486 41.3443 77.0441C31.1635 81.8711 23.9968 79.0381 19.8443 68.5441C19.0536 64.1186 19.387 59.7852 20.8443 55.5441C28.0426 48.6803 34.8759 41.5136 41.3443 34.0441C44.511 33.2108 45.6776 34.3774 44.8443 37.5441C38.1776 44.8774 31.511 52.2108 24.8443 59.5441C22.8918 70.9061 27.3918 75.4061 38.3443 73.0441C51.8737 59.8486 65.0403 46.3486 77.8443 32.5441C82.3923 19.4763 78.2253 10.643 65.3443 6.04413C60.2263 5.15613 55.2265 5.48943 50.3443 7.04413C35.511 20.5441 21.3443 34.7108 7.84431 49.5441C0.732405 70.1451 7.2324 84.3121 27.3443 92.0441C35.578 93.0691 43.2447 91.4031 50.3443 87.0441C57.6773 79.7111 65.0113 72.3771 72.3443 65.0441C74.4513 64.1899 75.7853 64.8566 76.3443 67.0441C69.0363 75.3521 61.3703 83.3521 53.3443 91.0441C39.9841 98.3411 26.6508 98.3411 13.3443 91.0441C2.21041 81.3101 -1.9563 69.1431 0.844305 54.5441C1.9664 50.0933 3.96641 46.0933 6.84431 42.5441C19.6776 29.7108 32.511 16.8774 45.3443 4.04413C47.5717 3.10313 49.5717 1.93643 51.3443 0.544135Z" fill="#767A7E"/>
</svg>
