<svg width="60" height="77" viewBox="0 0 60 77" fill="none" xmlns="http://www.w3.org/2000/svg">
<path d="M26 73C26 75.2091 27.7909 77 30 77C32.2091 77 34 75.2091 34 73L26 73ZM32.8284 1.17157C31.2663 -0.390524 28.7337 -0.390524 27.1716 1.17157L1.71573 26.6274C0.153633 28.1895 0.153633 30.7222 1.71573 32.2843C3.27783 33.8464 5.81049 33.8464 7.37258 32.2843L30 9.65685L52.6274 32.2843C54.1895 33.8464 56.7222 33.8464 58.2843 32.2843C59.8464 30.7222 59.8464 28.1895 58.2843 26.6274L32.8284 1.17157ZM34 73L34 4L26 4L26 73L34 73Z" fill="white"/>
</svg>
