<svg width="100%" height="100%" viewBox="0 0 32 32" fill="none" xmlns="http://www.w3.org/2000/svg">
<path d="M30.1333 32C26.4296 32 22.7704 31.1926 19.1556 29.5778C15.5407 27.963 12.2519 25.6741 9.28889 22.7111C6.32593 19.7481 4.03704 16.4593 2.42222 12.8444C0.807408 9.22963 0 5.57037 0 1.86667C0 1.33333 0.177778 0.888889 0.533333 0.533333C0.888889 0.177778 1.33333 0 1.86667 0H9.06667C9.48148 0 9.85185 0.140741 10.1778 0.422222C10.5037 0.703704 10.6963 1.03704 10.7556 1.42222L11.9111 7.64444C11.9704 8.11852 11.9556 8.51852 11.8667 8.84444C11.7778 9.17037 11.6148 9.45185 11.3778 9.68889L7.06667 14.0444C7.65926 15.1407 8.36296 16.2 9.17778 17.2222C9.99259 18.2444 10.8889 19.2296 11.8667 20.1778C12.7852 21.0963 13.7481 21.9481 14.7556 22.7333C15.763 23.5185 16.8296 24.237 17.9556 24.8889L22.1333 20.7111C22.4 20.4444 22.7481 20.2444 23.1778 20.1111C23.6074 19.9778 24.0296 19.9407 24.4444 20L30.5778 21.2444C30.9926 21.363 31.3333 21.5778 31.6 21.8889C31.8667 22.2 32 22.5481 32 22.9333V30.1333C32 30.6667 31.8222 31.1111 31.4667 31.4667C31.1111 31.8222 30.6667 32 30.1333 32Z" fill="#0E76F1"/>
</svg>
