<svg width="100%" height="100%" viewBox="0 0 43 36" fill="none" xmlns="http://www.w3.org/2000/svg">
<path fill-rule="evenodd" clip-rule="evenodd" d="M31 14C31 21.732 24.0604 28 15.5 28C14.3906 28 13.3084 27.8947 12.265 27.6946C8.9657 30.4203 8.45547 30.521 4.46965 31.3077L4.46954 31.3077C4.16726 31.3674 3.84499 31.431 3.5 31.5C5.70167 28.4177 5.9644 26.4987 5.99575 25.0601C2.34737 22.4986 0 18.4969 0 14C0 6.26801 6.93959 0 15.5 0C24.0604 0 31 6.26801 31 14ZM27.0799 32.3715C23.6671 32.3715 20.5205 31.3427 18 29.6098C26.6517 29.2869 33.5561 22.8496 33.5561 14.9558C33.5561 11.3528 32.1177 8.05321 29.7312 5.5C36.7509 6.63021 42.0799 12.1685 42.0799 18.8303C42.0799 23.1782 39.81 27.0474 36.2817 29.525C36.3118 30.9168 36.5648 32.7734 38.6971 35.757C38.3632 35.6903 38.0514 35.6288 37.7589 35.5711L37.7587 35.571C33.9011 34.81 33.4076 34.7127 30.2138 32.0755C29.2031 32.2695 28.1547 32.3715 27.0799 32.3715Z" fill="#959595"/>
</svg>
