<svg width="100%" height="100%" viewBox="0 0 37 37" fill="none" xmlns="http://www.w3.org/2000/svg">
<path fill-rule="evenodd" clip-rule="evenodd" d="M18.5 37C28.7173 37 37 28.7173 37 18.5C37 8.28273 28.7173 0 18.5 0C8.28273 0 0 8.28273 0 18.5C0 28.7173 8.28273 37 18.5 37ZM8.03136 27.425C9.51886 26.2875 11.1814 25.3906 13.0189 24.7344C14.8564 24.0781 16.7814 23.75 18.7939 23.75C20.8064 23.75 22.7314 24.0781 24.5689 24.7344C26.4064 25.3906 28.0689 26.2875 29.5564 27.425C29.5564 30 25 33 18.7938 33C13.0189 33 8.00002 30 8.03136 27.425ZM18.7939 20.25C17.073 20.25 15.622 19.6594 14.4407 18.4781C13.2595 17.2969 12.6689 15.8458 12.6689 14.125C12.6689 12.4042 13.2595 10.9531 14.4407 9.77188C15.622 8.59063 17.073 8 18.7939 8C20.5147 8 21.9657 8.59063 23.147 9.77188C24.3282 10.9531 24.9189 12.4042 24.9189 14.125C24.9189 15.8458 24.3282 17.2969 23.147 18.4781C21.9657 19.6594 20.5147 20.25 18.7939 20.25Z" fill="#0E76F1"/>
</svg>
