<svg width="100%" height="100%" viewBox="0 0 37 37" fill="#959595" xmlns="http://www.w3.org/2000/svg">
<path fill-rule="evenodd" clip-rule="evenodd" d="M18.5 37C28.7188 37 37 28.7168 37 18.5C37 8.2832 28.7188 0 18.5 0C8.28125 0 0 8.2832 0 18.5C0 28.7168 8.28125 37 18.5 37ZM8.03125 27.4258C9.51562 26.2871 11.1797 25.3906 13.0156 24.7344C14.8594 24.0781 16.7812 23.75 18.7969 23.75C20.2266 23.75 21.6172 23.918 22.9688 24.25C23.5078 24.3848 24.0469 24.5469 24.5703 24.7344C26.4062 25.3906 28.0703 26.2871 29.5547 27.4258C29.5547 30 25 33 18.7969 33C14.8906 33 11.3281 31.627 9.44531 29.9434C8.53906 29.1367 8.02344 28.2598 8.03125 27.4258ZM18.7969 20.25C17.0703 20.25 15.625 19.6602 14.4375 18.4785C13.2578 17.2969 12.6719 15.8457 12.6719 14.125C12.6719 12.4043 13.2578 10.9531 14.4375 9.77148C15.625 8.58984 17.0703 8 18.7969 8C20.5156 8 21.9688 8.58984 23.1484 9.77148C24.3281 10.9531 24.9219 12.4043 24.9219 14.125C24.9219 15.8457 24.3281 17.2969 23.1484 18.4785C21.9688 19.6602 20.5156 20.25 18.7969 20.25Z" />
</svg>
