<svg width="100%" height="100%" viewBox="0 0 28 28" fill="none" xmlns="http://www.w3.org/2000/svg">
<path d="M9.29289 17.2929C8.90237 17.6834 8.90237 18.3166 9.29289 18.7071C9.68342 19.0976 10.3166 19.0976 10.7071 18.7071L9.29289 17.2929ZM25.7071 3.70711L26.4142 3L25 1.58579L24.2929 2.29289L25.7071 3.70711ZM10.7071 18.7071L25.7071 3.70711L24.2929 2.29289L9.29289 17.2929L10.7071 18.7071Z" fill="#0E76F1"/>
<path d="M18 3.5H4C2.34315 3.5 1 4.84315 1 6.5V24C1 25.6569 2.34315 27 4 27H21C22.6569 27 24 25.6569 24 24V10" stroke="#0E76F1" stroke-width="2" stroke-linecap="round"/>
<rect x="26" width="2" height="2" rx="1" fill="#0E76F1"/>
</svg>
