<svg width="100%" height="100%" viewBox="0 0 24 24" fill="#959595" xmlns="http://www.w3.org/2000/svg">
<mask id="mask0_5103_22" style="mask-type:alpha" maskUnits="userSpaceOnUse" x="0" y="0" width="24" height="24">
<rect width="24" height="24" fill="#D9D9D9"/>
</mask>
<g mask="url(#mask0_5103_22)">
<rect x="3" y="6.93103" width="12.5517" height="1.93103" />
<path d="M20.8621 7.89655C20.8621 9.49627 19.5652 10.7931 17.9655 10.7931C16.3658 10.7931 15.069 9.49627 15.069 7.89655C15.069 6.29683 16.3658 5 17.9655 5C19.5652 5 20.8621 6.29683 20.8621 7.89655ZM16.338 7.89655C16.338 8.79543 17.0666 9.52412 17.9655 9.52412C18.8644 9.52412 19.5931 8.79543 19.5931 7.89655C19.5931 6.99767 18.8644 6.26899 17.9655 6.26899C17.0666 6.26899 16.338 6.99767 16.338 7.89655Z" />
<rect x="20.8621" y="17.069" width="12.5517" height="1.93103" transform="rotate(180 20.8621 17.069)" />
<path d="M2.99999 16.1034C2.99999 14.5037 4.29682 13.2069 5.89654 13.2069C7.49626 13.2069 8.79309 14.5037 8.79309 16.1034C8.79309 17.7032 7.49626 19 5.89654 19C4.29682 19 2.99999 17.7032 2.99999 16.1034ZM7.5241 16.1034C7.5241 15.2046 6.79542 14.4759 5.89654 14.4759C4.99766 14.4759 4.26898 15.2046 4.26898 16.1034C4.26898 17.0023 4.99766 17.731 5.89654 17.731C6.79542 17.731 7.5241 17.0023 7.5241 16.1034Z" />
</g>
</svg>
