<svg width="100%" height="100%" viewBox="0 0 24 24" fill="none" xmlns="http://www.w3.org/2000/svg">
<path fill-rule="evenodd" clip-rule="evenodd" d="M9.75 0.75C4.50329 0.75 0.25 5.00329 0.25 10.25C0.25 15.4967 4.50329 19.75 9.75 19.75H10.25C12.6034 19.75 14.7569 18.8943 16.4163 17.477L22.4697 23.5303C22.7626 23.8232 23.2374 23.8232 23.5303 23.5303C23.8232 23.2374 23.8232 22.7626 23.5303 22.4697L17.477 16.4163C18.8943 14.7569 19.75 12.6034 19.75 10.25C19.75 5.00329 15.4967 0.75 10.25 0.75H10H9.75ZM1.75 10.25C1.75 5.83172 5.33172 2.25 9.75 2.25H10H10.25C14.6683 2.25 18.25 5.83172 18.25 10.25C18.25 14.6683 14.6683 18.25 10.25 18.25H9.75C5.33172 18.25 1.75 14.6683 1.75 10.25Z" fill="#707579"/>
</svg>
