<svg width="100%" height="100%" viewBox="0 0 39 39" fill="#959595" xmlns="http://www.w3.org/2000/svg">
<path fill-rule="evenodd" clip-rule="evenodd" d="M20.5 1C20.5 0.447715 20.0523 0 19.5 0C18.9477 0 18.5 0.447715 18.5 1V4.06939C16.4328 4.26159 14.4797 4.84705 12.7163 5.75024L11.116 2.97852C10.8399 2.50022 10.2283 2.33635 9.75 2.61249C9.27171 2.88863 9.10783 3.50022 9.38397 3.97852L10.9966 6.77168C9.33758 7.90302 7.90237 9.33831 6.77112 10.9974L3.97656 9.38398C3.49827 9.10783 2.88668 9.27171 2.61054 9.75C2.33439 10.2283 2.49827 10.8399 2.97656 11.116L5.74979 12.7171C4.84686 14.4804 4.26156 16.4331 4.06939 18.5H1C0.447715 18.5 0 18.9477 0 19.5C0 20.0523 0.447715 20.5 1 20.5H4.00766C4.07312 22.6322 4.55574 24.6594 5.37668 26.5028L2.98437 27.884C2.50608 28.1601 2.34221 28.7717 2.61835 29.25C2.89449 29.7283 3.50608 29.8922 3.98438 29.616L6.30427 28.2766C7.40916 30.101 8.86829 31.6869 10.5863 32.939L9.38397 35.0215C9.10783 35.4998 9.27171 36.1114 9.75 36.3875C10.2283 36.6637 10.8399 36.4998 11.116 36.0215L12.2746 34.0147C14.1514 35.0515 16.2586 35.7222 18.5 35.9306V38C18.5 38.5523 18.9477 39 19.5 39C20.0523 39 20.5 38.5523 20.5 38V35.9923C22.8082 35.9215 24.9934 35.3617 26.9554 34.4132L27.884 36.0215C28.1601 36.4998 28.7717 36.6637 29.25 36.3875C29.7283 36.1114 29.8922 35.4998 29.616 35.0215L28.698 33.4315C30.5887 32.2046 32.204 30.5894 33.4309 28.6989L35.0195 29.616C35.4978 29.8922 36.1094 29.7283 36.3855 29.25C36.6617 28.7717 36.4978 28.1601 36.0195 27.884L34.4127 26.9563C35.3616 24.994 35.9215 22.8086 35.9923 20.5H38C38.5523 20.5 39 20.0523 39 19.5C39 18.9477 38.5523 18.5 38 18.5H35.9306C35.7223 16.2596 35.0521 14.1533 34.0161 12.2772L36.0273 11.116C36.5056 10.8399 36.6694 10.2283 36.3933 9.75C36.1172 9.27171 35.5056 9.10783 35.0273 9.38398L32.9407 10.5886C31.6878 8.86884 30.1004 7.40833 28.2741 6.30275L29.616 3.97852C29.8922 3.50022 29.7283 2.88863 29.25 2.61249C28.7717 2.33635 28.1601 2.50022 27.884 2.97852L26.5001 5.37548C24.6575 4.55527 22.6312 4.07308 20.5 4.00766V1ZM20 33.318C12.6447 33.318 6.68201 27.3553 6.68201 20C6.68201 12.6447 12.6447 6.68201 20 6.68201C27.3553 6.68201 33.318 12.6447 33.318 20C33.318 27.3553 27.3553 33.318 20 33.318Z" />
<path fill-rule="evenodd" clip-rule="evenodd" d="M14.2564 11.2114C11.3927 13.0869 9.5 16.3227 9.5 20C9.5 23.5927 11.3067 26.764 14.0604 28.6571C14.0828 28.5959 14.1116 28.536 14.1468 28.4783L15 29L15.8532 29.5217C15.8325 29.5555 15.8101 29.5877 15.7862 29.6181C17.0779 30.1852 18.5053 30.5 20.0059 30.5C25.6367 30.5 30.2379 26.0677 30.5 20.5017L30.4892 20.5022L30.2889 20.5122L29.5447 20.5494L27.0211 20.6755L21.0806 20.9724L17.7988 26.3397L16.4108 28.6097L16.0015 29.2791L15.8913 29.4592L15.8628 29.5058L15.8556 29.5177L15.8538 29.5207L15.8533 29.5214L15.8532 29.5216L15 29L14.1469 28.4783L14.147 28.4781L14.1472 28.4778L14.1475 28.4773L14.1493 28.4743L14.1565 28.4625L14.185 28.4159L14.2952 28.2358L14.7045 27.5663L16.0925 25.2964L19.3394 19.9862L16.0803 14.36L14.6923 11.9639L14.283 11.2573L14.2564 11.2114ZM30.4059 18.5039L30.3894 18.5047L30.1891 18.5147L29.4449 18.5519L26.9213 18.678L21.0626 18.9708L17.8109 13.3575L16.4229 10.9614L16.0279 10.2794C17.2551 9.77697 18.5983 9.5 20.0059 9.5C25.2969 9.5 29.6789 13.4136 30.4059 18.5039Z" />
</svg>
